<svg width="214" height="167" viewBox="0 0 214 167" fill="none" xmlns="http://www.w3.org/2000/svg">
<rect width="214" height="167" rx="10" fill="#C4C4C4"/>
<rect width="214" height="167" rx="10" fill="#673AB7"/>
<path d="M50.032 133.624C50.032 131.992 50.4 130.528 51.136 129.232C51.872 127.92 52.872 126.896 54.136 126.16C55.416 125.424 56.832 125.056 58.384 125.056C60.208 125.056 61.8 125.496 63.16 126.376C64.52 127.256 65.512 128.504 66.136 130.12H63.52C63.056 129.112 62.384 128.336 61.504 127.792C60.64 127.248 59.6 126.976 58.384 126.976C57.216 126.976 56.168 127.248 55.24 127.792C54.312 128.336 53.584 129.112 53.056 130.12C52.528 131.112 52.264 132.28 52.264 133.624C52.264 134.952 52.528 136.12 53.056 137.128C53.584 138.12 54.312 138.888 55.24 139.432C56.168 139.976 57.216 140.248 58.384 140.248C59.6 140.248 60.64 139.984 61.504 139.456C62.384 138.912 63.056 138.136 63.52 137.128H66.136C65.512 138.728 64.52 139.968 63.16 140.848C61.8 141.712 60.208 142.144 58.384 142.144C56.832 142.144 55.416 141.784 54.136 141.064C52.872 140.328 51.872 139.312 51.136 138.016C50.4 136.72 50.032 135.256 50.032 133.624ZM75.1231 142.216C73.8911 142.216 72.7711 141.936 71.7631 141.376C70.7711 140.816 69.9871 140.024 69.4111 139C68.8511 137.96 68.5711 136.76 68.5711 135.4C68.5711 134.056 68.8591 132.872 69.4351 131.848C70.0271 130.808 70.8271 130.016 71.8351 129.472C72.8431 128.912 73.9711 128.632 75.2191 128.632C76.4671 128.632 77.5951 128.912 78.6031 129.472C79.6111 130.016 80.4031 130.8 80.9791 131.824C81.5711 132.848 81.8671 134.04 81.8671 135.4C81.8671 136.76 81.5631 137.96 80.9551 139C80.3631 140.024 79.5551 140.816 78.5311 141.376C77.5071 141.936 76.3711 142.216 75.1231 142.216ZM75.1231 140.296C75.9071 140.296 76.6431 140.112 77.3311 139.744C78.0191 139.376 78.5711 138.824 78.9871 138.088C79.4191 137.352 79.6351 136.456 79.6351 135.4C79.6351 134.344 79.4271 133.448 79.0111 132.712C78.5951 131.976 78.0511 131.432 77.3791 131.08C76.7071 130.712 75.9791 130.528 75.1951 130.528C74.3951 130.528 73.6591 130.712 72.9871 131.08C72.3311 131.432 71.8031 131.976 71.4031 132.712C71.0031 133.448 70.8031 134.344 70.8031 135.4C70.8031 136.472 70.9951 137.376 71.3791 138.112C71.7791 138.848 72.3071 139.4 72.9631 139.768C73.6191 140.12 74.3391 140.296 75.1231 140.296ZM100.555 128.608C101.579 128.608 102.491 128.824 103.291 129.256C104.091 129.672 104.723 130.304 105.187 131.152C105.651 132 105.883 133.032 105.883 134.248V142H103.723V134.56C103.723 133.248 103.395 132.248 102.739 131.56C102.099 130.856 101.227 130.504 100.123 130.504C98.9866 130.504 98.0826 130.872 97.4106 131.608C96.7386 132.328 96.4026 133.376 96.4026 134.752V142H94.2426V134.56C94.2426 133.248 93.9146 132.248 93.2586 131.56C92.6186 130.856 91.7466 130.504 90.6426 130.504C89.5066 130.504 88.6026 130.872 87.9306 131.608C87.2586 132.328 86.9226 133.376 86.9226 134.752V142H84.7386V128.848H86.9226V130.744C87.3546 130.056 87.9306 129.528 88.6506 129.16C89.3866 128.792 90.1946 128.608 91.0746 128.608C92.1786 128.608 93.1546 128.856 94.0026 129.352C94.8506 129.848 95.4826 130.576 95.8986 131.536C96.2666 130.608 96.8746 129.888 97.7226 129.376C98.5706 128.864 99.5146 128.608 100.555 128.608ZM111.649 131.272C112.081 130.52 112.721 129.896 113.569 129.4C114.433 128.888 115.433 128.632 116.569 128.632C117.737 128.632 118.793 128.912 119.737 129.472C120.697 130.032 121.449 130.824 121.993 131.848C122.537 132.856 122.809 134.032 122.809 135.376C122.809 136.704 122.537 137.888 121.993 138.928C121.449 139.968 120.697 140.776 119.737 141.352C118.793 141.928 117.737 142.216 116.569 142.216C115.449 142.216 114.457 141.968 113.593 141.472C112.745 140.96 112.097 140.328 111.649 139.576V148.24H109.465V128.848H111.649V131.272ZM120.577 135.376C120.577 134.384 120.377 133.52 119.977 132.784C119.577 132.048 119.033 131.488 118.345 131.104C117.673 130.72 116.929 130.528 116.113 130.528C115.313 130.528 114.569 130.728 113.881 131.128C113.209 131.512 112.665 132.08 112.249 132.832C111.849 133.568 111.649 134.424 111.649 135.4C111.649 136.392 111.849 137.264 112.249 138.016C112.665 138.752 113.209 139.32 113.881 139.72C114.569 140.104 115.313 140.296 116.113 140.296C116.929 140.296 117.673 140.104 118.345 139.72C119.033 139.32 119.577 138.752 119.977 138.016C120.377 137.264 120.577 136.384 120.577 135.376ZM124.868 135.376C124.868 134.032 125.14 132.856 125.684 131.848C126.228 130.824 126.972 130.032 127.916 129.472C128.876 128.912 129.94 128.632 131.108 128.632C132.26 128.632 133.26 128.88 134.108 129.376C134.956 129.872 135.588 130.496 136.004 131.248V128.848H138.212V142H136.004V139.552C135.572 140.32 134.924 140.96 134.06 141.472C133.212 141.968 132.22 142.216 131.084 142.216C129.916 142.216 128.86 141.928 127.916 141.352C126.972 140.776 126.228 139.968 125.684 138.928C125.14 137.888 124.868 136.704 124.868 135.376ZM136.004 135.4C136.004 134.408 135.804 133.544 135.404 132.808C135.004 132.072 134.46 131.512 133.772 131.128C133.1 130.728 132.356 130.528 131.54 130.528C130.724 130.528 129.98 130.72 129.308 131.104C128.636 131.488 128.1 132.048 127.7 132.784C127.3 133.52 127.1 134.384 127.1 135.376C127.1 136.384 127.3 137.264 127.7 138.016C128.1 138.752 128.636 139.32 129.308 139.72C129.98 140.104 130.724 140.296 131.54 140.296C132.356 140.296 133.1 140.104 133.772 139.72C134.46 139.32 135.004 138.752 135.404 138.016C135.804 137.264 136.004 136.392 136.004 135.4ZM148.311 128.608C149.911 128.608 151.207 129.096 152.199 130.072C153.191 131.032 153.687 132.424 153.687 134.248V142H151.527V134.56C151.527 133.248 151.199 132.248 150.543 131.56C149.887 130.856 148.991 130.504 147.855 130.504C146.703 130.504 145.783 130.864 145.095 131.584C144.423 132.304 144.087 133.352 144.087 134.728V142H141.903V128.848H144.087V130.72C144.519 130.048 145.103 129.528 145.839 129.16C146.591 128.792 147.415 128.608 148.311 128.608ZM168.582 128.848L160.662 148.192H158.406L160.998 141.856L155.694 128.848H158.118L162.246 139.504L166.326 128.848H168.582Z" fill="#FFF6F6"/>
<path d="M89.7158 54.9998H94.6447V64.9998H89.7158V54.9998Z" fill="#FFF7F7"/>
<path d="M89.7158 70.0002H94.6447V80.0002H89.7158V70.0002Z" fill="#FFF7F7"/>
<path d="M104.502 54.9998H109.431V64.9998H104.502V54.9998Z" fill="#FFF7F7"/>
<path d="M104.502 70.0002H109.431V80.0002H104.502V70.0002Z" fill="#FFF7F7"/>
<path d="M89.7158 85.0005H94.6447V95.0005H89.7158V85.0005Z" fill="#FFF7F7"/>
<path d="M104.502 85.0005H109.431V95.0005H104.502V85.0005Z" fill="#FFF7F7"/>
<path d="M141.933 67.75C141.933 66.4239 141.414 65.1521 140.49 64.2145C139.565 63.2768 138.312 62.75 137.004 62.75H122.218V42.75C122.218 41.4239 121.698 40.1521 120.774 39.2145C119.85 38.2768 118.596 37.75 117.289 37.75H77.8576C76.5504 37.75 75.2967 38.2768 74.3724 39.2145C73.448 40.1521 72.9287 41.4239 72.9287 42.75V107.75H141.933V67.75ZM77.8576 42.75H117.289V102.75H77.8576V42.75ZM122.218 102.75V67.75H137.004V102.75H122.218Z" fill="#FFF7F7"/>
</svg>
