<svg width="18" height="19" viewBox="0 0 18 19" fill="none" xmlns="http://www.w3.org/2000/svg">
<path d="M16.6676 0.5H1.32891C0.594141 0.5 0 1.08008 0 1.79727V17.1992C0 17.9164 0.594141 18.5 1.32891 18.5H16.6676C17.4023 18.5 18 17.9164 18 17.2027V1.79727C18 1.08008 17.4023 0.5 16.6676 0.5ZM5.34023 15.8387H2.66836V7.24648H5.34023V15.8387ZM4.0043 6.07578C3.14648 6.07578 2.45391 5.3832 2.45391 4.52891C2.45391 3.67461 3.14648 2.98203 4.0043 2.98203C4.85859 2.98203 5.55117 3.67461 5.55117 4.52891C5.55117 5.37969 4.85859 6.07578 4.0043 6.07578ZM15.3387 15.8387H12.6703V11.6621C12.6703 10.6672 12.6527 9.38398 11.2816 9.38398C9.89297 9.38398 9.68203 10.4703 9.68203 11.5918V15.8387H7.01719V7.24648H9.57656V8.4207H9.61172C9.9668 7.7457 10.8387 7.03203 12.1359 7.03203C14.8395 7.03203 15.3387 8.81094 15.3387 11.1242V15.8387Z" fill="#98A2B3"/>
</svg>
