<svg width="319" height="200" viewBox="0 0 319 200" fill="none" xmlns="http://www.w3.org/2000/svg">
<g clip-path="url(#clip0_340_192)">
<path d="M273.645 161.685H34.4545C32.8217 161.683 31.2563 161.035 30.1017 159.884C28.9472 158.733 28.2977 157.173 28.2959 155.545V8.5183C28.2972 7.32585 28.773 6.18261 29.6188 5.33941C30.4646 4.4962 31.6115 4.02188 32.8077 4.02051H275.214C276.431 4.02189 277.597 4.50439 278.458 5.36218C279.318 6.21996 279.802 7.38298 279.804 8.59605V155.545C279.802 157.173 279.152 158.733 277.998 159.884C276.843 161.035 275.278 161.683 273.645 161.685Z" fill="#F2F2F2"/>
<path d="M264.92 154.107H42.0005C38.7327 154.107 36.0742 151.625 36.0742 148.575V20.5415C36.0742 18.2793 38.0442 16.4387 40.4657 16.4387H266.382C268.843 16.4387 270.846 18.3096 270.846 20.6091V148.575C270.846 151.625 268.188 154.107 264.92 154.107Z" fill="white"/>
<path d="M279.718 9.28336H28.21V6.15777C28.2123 4.52469 28.8644 2.95923 30.0232 1.80483C31.1819 0.650424 32.7527 0.00134821 34.3909 0H273.537C275.176 0.00134035 276.746 0.650411 277.905 1.80482C279.064 2.95922 279.716 4.52469 279.718 6.15777V9.28336Z" fill="#6C63FF"/>
<path d="M39.4425 6.24464C40.3255 6.24464 41.0413 5.53109 41.0413 4.65088C41.0413 3.77068 40.3255 3.05713 39.4425 3.05713C38.5595 3.05713 37.8438 3.77068 37.8438 4.65088C37.8438 5.53109 38.5595 6.24464 39.4425 6.24464Z" fill="white"/>
<path d="M45.5109 6.24464C46.3939 6.24464 47.1097 5.53109 47.1097 4.65088C47.1097 3.77068 46.3939 3.05713 45.5109 3.05713C44.6279 3.05713 43.9121 3.77068 43.9121 4.65088C43.9121 5.53109 44.6279 6.24464 45.5109 6.24464Z" fill="white"/>
<path d="M51.5792 6.24464C52.4622 6.24464 53.178 5.53109 53.178 4.65088C53.178 3.77068 52.4622 3.05713 51.5792 3.05713C50.6963 3.05713 49.9805 3.77068 49.9805 4.65088C49.9805 5.53109 50.6963 6.24464 51.5792 6.24464Z" fill="white"/>
<path d="M146.866 137.587H69.2906C67.5589 137.585 65.8986 136.898 64.6741 135.678C63.4496 134.457 62.7608 132.802 62.7588 131.076V37.6274C62.7602 36.3363 63.2754 35.0985 64.1912 34.1856C65.107 33.2726 66.3486 32.7591 67.6438 32.7576H148.434C149.75 32.7591 151.012 33.2808 151.942 34.2084C152.872 35.1359 153.396 36.3935 153.397 37.7052V131.076C153.395 132.802 152.707 134.457 151.482 135.678C150.258 136.898 148.597 137.585 146.866 137.587ZM67.6438 33.5017C66.5465 33.503 65.4946 33.9381 64.7188 34.7115C63.9429 35.485 63.5065 36.5336 63.5053 37.6274V131.076C63.507 132.605 64.1171 134.07 65.2017 135.152C66.2863 136.233 67.7568 136.841 69.2906 136.843H146.866C148.399 136.841 149.87 136.233 150.954 135.152C152.039 134.07 152.649 132.605 152.651 131.076V37.7052C152.65 36.5908 152.205 35.5223 151.414 34.7343C150.624 33.9463 149.552 33.503 148.434 33.5017H67.6438Z" fill="#CCCCCC"/>
<path d="M75.263 131.076H140.894C142.478 131.076 143.997 130.448 145.117 129.332C146.237 128.216 146.866 126.701 146.866 125.122V45.2945C146.866 43.7156 146.237 42.2014 145.117 41.085C143.997 39.9685 142.478 39.3413 140.894 39.3413H75.263C73.6791 39.3413 72.1601 39.9685 71.0402 41.085C69.9202 42.2014 69.291 43.7156 69.291 45.2945V125.122C69.291 126.701 69.9202 128.216 71.0402 129.332C72.1601 130.448 73.6791 131.076 75.263 131.076Z" fill="#E6E6E6"/>
<path d="M126.181 55.6285H89.9759C89.3325 55.6285 88.7154 55.3737 88.2604 54.9201C87.8054 54.4666 87.5498 53.8514 87.5498 53.21C87.5498 52.5686 87.8054 51.9534 88.2604 51.4999C88.7154 51.0463 89.3325 50.7915 89.9759 50.7915H126.181C126.824 50.7915 127.441 51.0463 127.896 51.4999C128.351 51.9534 128.607 52.5686 128.607 53.21C128.607 53.8514 128.351 54.4666 127.896 54.9201C127.441 55.3737 126.824 55.6285 126.181 55.6285Z" fill="white"/>
<path d="M126.181 108.091H89.9759C89.3325 108.091 88.7154 107.836 88.2604 107.383C87.8054 106.929 87.5498 106.314 87.5498 105.673C87.5498 105.031 87.8054 104.416 88.2604 103.963C88.7154 103.509 89.3325 103.254 89.9759 103.254H126.181C126.824 103.254 127.441 103.509 127.896 103.963C128.351 104.416 128.607 105.031 128.607 105.673C128.607 106.314 128.351 106.929 127.896 107.383C127.441 107.836 126.824 108.091 126.181 108.091Z" fill="white"/>
<path d="M126.181 119.625H89.9759C89.3325 119.625 88.7154 119.371 88.2604 118.917C87.8054 118.463 87.5498 117.848 87.5498 117.207C87.5498 116.565 87.8054 115.95 88.2604 115.497C88.7154 115.043 89.3325 114.788 89.9759 114.788H126.181C126.824 114.788 127.441 115.043 127.896 115.497C128.351 115.95 128.607 116.565 128.607 117.207C128.607 117.848 128.351 118.463 127.896 118.917C127.441 119.371 126.824 119.625 126.181 119.625Z" fill="white"/>
<path d="M108.265 91.1615C116.304 91.1615 122.821 84.6648 122.821 76.6506C122.821 68.6364 116.304 62.1396 108.265 62.1396C100.225 62.1396 93.708 68.6364 93.708 76.6506C93.708 84.6648 100.225 91.1615 108.265 91.1615Z" fill="white"/>
<path d="M201.907 63.3537L195.548 64.6907C195.492 64.7025 195.439 64.727 195.394 64.7622C195.349 64.7975 195.313 64.8426 195.288 64.8941C195.264 64.9455 195.251 65.002 195.252 65.0591C195.252 65.1161 195.266 65.1723 195.292 65.2232L195.885 66.3868L167.128 80.9376C167.084 80.9598 167.045 80.9902 167.014 81.0273C166.982 81.0644 166.957 81.1074 166.942 81.1539C166.927 81.2003 166.921 81.2493 166.925 81.298C166.929 81.3467 166.942 81.3942 166.964 81.4378C166.986 81.4814 167.017 81.5201 167.054 81.5519C167.091 81.5837 167.135 81.6079 167.181 81.623C167.228 81.6382 167.277 81.6441 167.326 81.6403C167.375 81.6366 167.422 81.6232 167.466 81.6011L196.223 67.0503L196.815 68.214C196.841 68.2649 196.878 68.3092 196.924 68.3434C196.97 68.3776 197.023 68.4009 197.079 68.4114C197.136 68.4219 197.193 68.4193 197.249 68.4039C197.304 68.3885 197.355 68.3606 197.397 68.3225L202.233 63.9947C202.294 63.94 202.336 63.8667 202.351 63.7861C202.366 63.7056 202.354 63.6224 202.317 63.5494C202.28 63.4763 202.219 63.4176 202.145 63.3822C202.071 63.3468 201.987 63.3368 201.907 63.3537Z" fill="#E6E6E6"/>
<path d="M201.907 99.5218L195.548 98.1848C195.492 98.1731 195.439 98.1486 195.394 98.1133C195.349 98.0781 195.313 98.033 195.288 97.9815C195.264 97.93 195.251 97.8736 195.252 97.8165C195.252 97.7594 195.266 97.7033 195.292 97.6524L195.885 96.4888L167.128 81.9379C167.084 81.9158 167.045 81.8853 167.014 81.8482C166.982 81.8111 166.957 81.7681 166.942 81.7217C166.927 81.6752 166.921 81.6262 166.925 81.5775C166.929 81.5288 166.942 81.4813 166.964 81.4378C166.986 81.3942 167.017 81.3554 167.054 81.3236C167.091 81.2918 167.135 81.2677 167.181 81.2525C167.228 81.2373 167.277 81.2315 167.326 81.2352C167.375 81.239 167.422 81.2523 167.466 81.2744L196.223 95.8252L196.815 94.6615C196.841 94.6106 196.878 94.5664 196.924 94.5321C196.97 94.4979 197.023 94.4747 197.079 94.4642C197.136 94.4537 197.193 94.4563 197.249 94.4717C197.304 94.4871 197.355 94.5149 197.397 94.5531L202.233 98.8809C202.294 98.9356 202.336 99.0089 202.351 99.0894C202.366 99.1699 202.354 99.2531 202.317 99.3262C202.28 99.3992 202.219 99.458 202.145 99.4933C202.071 99.5287 201.987 99.5387 201.907 99.5218Z" fill="#E6E6E6"/>
<path d="M222.867 71.634C221.243 71.634 219.655 71.1539 218.305 70.2545C216.954 69.355 215.902 68.0766 215.28 66.5809C214.659 65.0851 214.496 63.4393 214.813 61.8514C215.13 60.2636 215.912 58.805 217.06 57.6602C218.209 56.5154 219.672 55.7358 221.265 55.42C222.858 55.1041 224.509 55.2662 226.009 55.8858C227.51 56.5053 228.792 57.5545 229.694 58.9007C230.597 60.2468 231.078 61.8294 231.078 63.4484C231.076 65.6186 230.21 67.6992 228.67 69.2338C227.131 70.7684 225.044 71.6316 222.867 71.634ZM222.867 56.0068C221.39 56.0068 219.947 56.4433 218.719 57.261C217.492 58.0787 216.535 59.2409 215.97 60.6006C215.405 61.9604 215.257 63.4566 215.545 64.9001C215.833 66.3436 216.544 67.6696 217.588 68.7103C218.632 69.751 219.962 70.4597 221.41 70.7469C222.858 71.034 224.359 70.8866 225.723 70.3234C227.087 69.7602 228.253 68.8064 229.074 67.5826C229.894 66.3589 230.332 64.9201 230.332 63.4484C230.329 61.4754 229.542 59.584 228.143 58.1889C226.743 56.7938 224.846 56.0091 222.867 56.0068Z" fill="#E6E6E6"/>
<path d="M222.867 107.725C221.243 107.725 219.655 107.245 218.305 106.346C216.954 105.446 215.902 104.168 215.28 102.672C214.659 101.176 214.496 99.5306 214.813 97.9427C215.13 96.3549 215.912 94.8963 217.06 93.7515C218.209 92.6067 219.672 91.8271 221.265 91.5113C222.858 91.1954 224.509 91.3575 226.009 91.9771C227.51 92.5967 228.792 93.6458 229.694 94.992C230.597 96.3381 231.078 97.9207 231.078 99.5397C231.076 101.71 230.21 103.791 228.67 105.325C227.131 106.86 225.044 107.723 222.867 107.725ZM222.867 92.0982C221.39 92.0982 219.947 92.5346 218.719 93.3523C217.492 94.17 216.535 95.3322 215.97 96.6919C215.405 98.0517 215.257 99.5479 215.545 100.991C215.833 102.435 216.544 103.761 217.588 104.802C218.632 105.842 219.962 106.551 221.41 106.838C222.858 107.125 224.359 106.978 225.723 106.415C227.087 105.851 228.253 104.898 229.074 103.674C229.894 102.45 230.332 101.011 230.332 99.5397C230.329 97.5667 229.542 95.6753 228.143 94.2802C226.743 92.8851 224.846 92.1004 222.867 92.0982Z" fill="#E6E6E6"/>
<path d="M222.215 67.4819C221.978 67.4823 221.747 67.4058 221.557 67.2639L221.545 67.2551L219.067 65.3652C218.952 65.2775 218.856 65.1681 218.784 65.0432C218.711 64.9184 218.664 64.7806 218.645 64.6376C218.626 64.4947 218.636 64.3495 218.673 64.2102C218.711 64.0709 218.775 63.9403 218.863 63.8259C218.951 63.7115 219.061 63.6154 219.186 63.5433C219.311 63.4711 219.45 63.4243 219.593 63.4054C219.736 63.3865 219.882 63.396 220.022 63.4333C220.161 63.4705 220.292 63.5348 220.407 63.6226L222.013 64.8497L225.806 59.9163C225.894 59.8019 226.004 59.706 226.129 59.6338C226.254 59.5617 226.392 59.5149 226.535 59.496C226.679 59.4771 226.824 59.4866 226.964 59.5239C227.104 59.5611 227.235 59.6254 227.349 59.7131L227.35 59.7133L227.326 59.7459L227.35 59.7133C227.582 59.8907 227.733 60.1523 227.772 60.4408C227.81 60.7294 227.731 61.0212 227.554 61.2523L223.092 67.0525C222.989 67.1861 222.856 67.2942 222.704 67.3685C222.552 67.4428 222.385 67.4811 222.216 67.4806L222.215 67.4819Z" fill="#E6E6E6"/>
<path d="M219.304 103.092C219.252 103.04 219.21 102.978 219.182 102.911C219.154 102.843 219.14 102.77 219.14 102.697C219.14 102.624 219.154 102.551 219.182 102.483C219.21 102.416 219.252 102.354 219.304 102.302L225.638 95.9879C225.743 95.8834 225.885 95.8247 226.034 95.8247C226.182 95.8247 226.324 95.8835 226.429 95.9882C226.534 96.0928 226.593 96.2347 226.593 96.3827C226.593 96.5306 226.535 96.6725 226.43 96.7772L220.095 103.092C220.043 103.143 219.982 103.185 219.914 103.213C219.846 103.241 219.773 103.255 219.7 103.255C219.626 103.255 219.553 103.241 219.485 103.213C219.417 103.185 219.356 103.143 219.304 103.092Z" fill="#E6E6E6"/>
<path d="M226.056 103.092C226.108 103.04 226.15 102.978 226.178 102.911C226.206 102.843 226.22 102.77 226.22 102.697C226.22 102.624 226.206 102.551 226.178 102.483C226.15 102.416 226.108 102.354 226.056 102.302L219.722 95.9879C219.617 95.8834 219.475 95.8247 219.326 95.8247C219.178 95.8247 219.036 95.8835 218.931 95.9882C218.826 96.0928 218.767 96.2347 218.767 96.3827C218.767 96.5306 218.825 96.6725 218.93 96.7772L225.265 103.092C225.317 103.143 225.378 103.185 225.446 103.213C225.514 103.241 225.587 103.255 225.66 103.255C225.734 103.255 225.807 103.241 225.875 103.213C225.943 103.185 226.004 103.143 226.056 103.092Z" fill="#E6E6E6"/>
<path d="M237.045 81.737C237.021 81.737 236.996 81.7352 236.972 81.7317C236.908 81.7225 236.846 81.7007 236.79 81.6674C236.734 81.6341 236.685 81.5901 236.646 81.5379L233.595 77.4592C233.582 77.442 233.565 77.4284 233.545 77.4199C233.525 77.4113 233.503 77.4082 233.482 77.4107C233.46 77.4132 233.44 77.4213 233.423 77.4342C233.405 77.4471 233.392 77.4643 233.383 77.4841L231.819 81.1329C231.778 81.2279 231.708 81.3078 231.62 81.3614C231.531 81.415 231.428 81.4396 231.325 81.4318C231.222 81.424 231.123 81.3842 231.044 81.3179C230.964 81.2516 230.908 81.1623 230.882 81.0623L227.76 69.0163C227.735 68.9212 227.74 68.8209 227.772 68.7283C227.805 68.6356 227.865 68.5547 227.944 68.496C228.023 68.4373 228.118 68.4034 228.216 68.3985C228.314 68.3937 228.412 68.4182 228.496 68.4689L239.186 74.8891C239.275 74.9423 239.345 75.022 239.386 75.1168C239.427 75.2116 239.437 75.3168 239.415 75.4177C239.393 75.5187 239.34 75.6102 239.263 75.6795C239.187 75.7488 239.09 75.7924 238.987 75.8042L235.034 76.2574C235.012 76.2599 234.992 76.268 234.975 76.2808C234.957 76.2937 234.944 76.3108 234.935 76.3306C234.926 76.3504 234.923 76.3721 234.926 76.3935C234.928 76.4149 234.936 76.4353 234.949 76.4526L238 80.531C238.079 80.6363 238.112 80.7683 238.093 80.8981C238.074 81.0279 238.005 81.1449 237.899 81.2234L237.34 81.6387C237.255 81.7025 237.151 81.737 237.045 81.737Z" fill="#6C63FF"/>
<path d="M254.406 90.6097H240.969C239.979 90.6097 239.03 90.2177 238.33 89.5199C237.63 88.8222 237.236 87.8758 237.236 86.889C237.236 85.9022 237.63 84.9558 238.33 84.258C239.03 83.5602 239.979 83.1682 240.969 83.1682H254.406C255.396 83.1682 256.345 83.5602 257.045 84.258C257.745 84.9558 258.138 85.9022 258.138 86.889C258.138 87.8758 257.745 88.8222 257.045 89.5199C256.345 90.2177 255.396 90.6097 254.406 90.6097Z" fill="#6C63FF"/>
<path d="M91.5656 64.8953L91.0069 64.48C90.9015 64.4015 90.8317 64.2845 90.8127 64.1547C90.7937 64.0249 90.8271 63.8929 90.9056 63.7876L93.9568 59.7092C93.9697 59.6919 93.9778 59.6715 93.9803 59.6501C93.9828 59.6287 93.9796 59.607 93.9711 59.5872C93.9625 59.5674 93.9488 59.5503 93.9315 59.5374C93.9141 59.5246 93.8937 59.5165 93.8722 59.514L89.919 59.0608C89.8161 59.049 89.7195 59.0054 89.6427 58.9361C89.5659 58.8668 89.5128 58.7752 89.4908 58.6743C89.4688 58.5734 89.4791 58.4682 89.5201 58.3734C89.5611 58.2786 89.6309 58.1989 89.7196 58.1456L100.41 51.7255C100.494 51.6748 100.592 51.6503 100.69 51.6551C100.788 51.66 100.883 51.6939 100.962 51.7526C101.041 51.8113 101.101 51.8922 101.134 51.9848C101.166 52.0775 101.171 52.1778 101.146 52.2729L98.0242 64.3189C97.9983 64.4188 97.9416 64.5082 97.8622 64.5745C97.7827 64.6408 97.6845 64.6806 97.5812 64.6884C97.4779 64.6962 97.3747 64.6716 97.2862 64.618C97.1976 64.5644 97.1281 64.4845 97.0874 64.3895L95.5229 60.7407C95.5144 60.7209 95.5008 60.7037 95.4835 60.6908C95.4662 60.6779 95.4458 60.6698 95.4243 60.6673C95.4028 60.6648 95.3811 60.6679 95.3612 60.6764C95.3414 60.685 95.3241 60.6985 95.3112 60.7158L92.26 64.7945C92.2212 64.8467 92.1724 64.8907 92.1164 64.924C92.0604 64.9573 91.9983 64.9791 91.9338 64.9883C91.9098 64.9918 91.8855 64.9936 91.8613 64.9936C91.7547 64.9936 91.6509 64.9591 91.5656 64.8953Z" fill="#3F3D56"/>
<path d="M70.7686 70.1458C70.7697 69.1593 71.1633 68.2136 71.863 67.5161C72.5627 66.8185 73.5114 66.4262 74.501 66.425H87.9379C88.9278 66.425 89.8772 66.8171 90.5771 67.5148C91.2771 68.2126 91.6703 69.159 91.6703 70.1458C91.6703 71.1326 91.2771 72.079 90.5771 72.7768C89.8772 73.4746 88.9278 73.8666 87.9379 73.8666H74.501C73.5114 73.8654 72.5627 73.4731 71.863 72.7755C71.1633 72.078 70.7697 71.1323 70.7686 70.1458Z" fill="#3F3D56"/>
<path d="M269.988 137.592C270.393 137.222 270.711 136.769 270.921 136.263C271.13 135.758 271.226 135.213 271.201 134.666C271.177 134.12 271.032 133.585 270.778 133.101C270.524 132.616 270.166 132.193 269.73 131.861L273.903 119.232L267.213 121.04L264.276 132.756C263.765 133.523 263.554 134.45 263.684 135.362C263.813 136.274 264.273 137.107 264.977 137.703C265.681 138.299 266.58 138.617 267.504 138.597C268.427 138.576 269.311 138.219 269.988 137.592Z" fill="#A0616A"/>
<path d="M310.113 136.848C309.708 136.478 309.39 136.025 309.18 135.519C308.971 135.014 308.875 134.468 308.9 133.922C308.924 133.375 309.069 132.841 309.323 132.356C309.577 131.872 309.935 131.448 310.371 131.116L306.198 118.488L312.888 120.296L315.825 132.011C316.336 132.778 316.546 133.706 316.417 134.618C316.288 135.53 315.828 136.362 315.124 136.959C314.42 137.555 313.521 137.873 312.597 137.852C311.673 137.832 310.789 137.474 310.113 136.848Z" fill="#A0616A"/>
<path d="M290.506 73.7637C295.569 73.7637 299.673 69.6722 299.673 64.6251C299.673 59.578 295.569 55.4866 290.506 55.4866C285.443 55.4866 281.339 59.578 281.339 64.6251C281.339 69.6722 285.443 73.7637 290.506 73.7637Z" fill="#A0616A"/>
<path d="M281.852 195.473H277.277L275.1 177.878H281.853L281.852 195.473Z" fill="#A0616A"/>
<path d="M283.019 199.895L268.265 199.894V199.708C268.265 198.956 268.413 198.212 268.702 197.517C268.99 196.823 269.413 196.192 269.947 195.66C270.48 195.129 271.113 194.707 271.81 194.419C272.507 194.131 273.253 193.983 274.008 193.983L283.02 193.984L283.019 199.895Z" fill="#2F2E41"/>
<path d="M297.529 195.473H292.954L290.776 177.878H297.53L297.529 195.473Z" fill="#A0616A"/>
<path d="M298.696 199.895L283.941 199.894V199.708C283.941 198.956 284.09 198.212 284.379 197.517C284.667 196.823 285.09 196.192 285.623 195.66C286.157 195.129 286.79 194.707 287.487 194.419C288.183 194.131 288.93 193.983 289.684 193.983L298.696 193.984L298.696 199.895Z" fill="#2F2E41"/>
<path d="M281.778 190.33L276.403 190.316C276.172 190.345 275.938 190.326 275.716 190.259C275.493 190.192 275.288 190.08 275.112 189.929C274.932 189.776 274.786 189.586 274.685 189.374C274.583 189.161 274.528 188.929 274.522 188.693L275.142 129.393L299.946 129.146L298.507 188.256C298.499 188.694 298.318 189.111 298.004 189.417C297.69 189.722 297.267 189.893 296.828 189.89H291.286C290.851 189.891 290.432 189.724 290.119 189.423C289.806 189.122 289.622 188.712 289.607 188.279L288.266 152.801C288.266 152.777 288.262 152.754 288.252 152.731C288.243 152.709 288.23 152.689 288.212 152.673C288.195 152.656 288.175 152.643 288.152 152.634C288.13 152.625 288.106 152.621 288.082 152.622C288.034 152.621 287.987 152.638 287.952 152.671C287.917 152.703 287.896 152.748 287.893 152.796L283.226 188.796C283.197 189.178 283.037 189.539 282.774 189.818C282.51 190.098 282.159 190.278 281.778 190.33Z" fill="#2F2E41"/>
<path d="M286.406 133.433C282.741 133.433 278.868 132.781 275.372 130.872C275.11 130.73 274.891 130.521 274.736 130.267C274.581 130.013 274.496 129.723 274.49 129.426L274.001 102.362L273.313 96.5708C272.901 93.126 273.516 89.6364 275.083 86.5386C276.65 83.4408 279.098 80.8722 282.121 79.1541L282.439 78.9735L283.334 76.8911C283.407 76.719 283.531 76.5731 283.688 76.4725C283.846 76.3719 284.031 76.3215 284.218 76.3279L296.253 76.6706C296.444 76.6766 296.629 76.7407 296.782 76.8544C296.936 76.968 297.051 77.1258 297.112 77.3065L297.67 78.9783C300.759 80.7457 303.238 83.4049 304.78 86.6051C306.321 89.8054 306.854 93.3963 306.307 96.9044L301.374 129.449C301.33 129.742 301.208 130.018 301.022 130.249C300.836 130.48 300.591 130.657 300.314 130.763C298.131 131.589 292.564 133.433 286.406 133.433Z" fill="#3F3D56"/>
<path d="M309.923 129.763C309.735 129.763 309.551 129.706 309.395 129.6C309.239 129.494 309.12 129.343 309.051 129.168L302.94 113.402L297.943 88.8388C297.754 87.9121 297.842 86.9505 298.195 86.0728C298.548 85.1951 299.151 84.4398 299.93 83.9001C300.603 83.4335 301.384 83.1441 302.199 83.0589C303.014 82.9737 303.838 83.0954 304.593 83.4128C305.348 83.7302 306.011 84.2329 306.519 84.8741C307.027 85.5153 307.364 86.2742 307.499 87.0802L308.897 95.4446L315.832 127.465C315.883 127.703 315.838 127.951 315.708 128.157C315.577 128.362 315.371 128.509 315.134 128.566L310.135 129.738C310.066 129.755 309.995 129.763 309.923 129.763Z" fill="#3F3D56"/>
<path d="M270.552 129.763C270.48 129.763 270.409 129.755 270.339 129.738L265.341 128.566C265.103 128.509 264.897 128.362 264.767 128.157C264.637 127.951 264.592 127.703 264.642 127.465L271.579 95.4359L272.976 87.0802C273.111 86.2742 273.448 85.5153 273.956 84.8741C274.464 84.2329 275.127 83.7302 275.882 83.4128C276.637 83.0954 277.461 82.9737 278.276 83.0589C279.091 83.1441 279.872 83.4335 280.544 83.9001C281.323 84.4398 281.927 85.1951 282.28 86.0728C282.633 86.9505 282.721 87.9121 282.532 88.8388L277.543 113.372L271.424 129.169C271.355 129.344 271.235 129.494 271.08 129.6C270.924 129.706 270.74 129.763 270.552 129.763Z" fill="#3F3D56"/>
<path d="M297.641 73.3431C296.792 73.8299 293.437 74.1527 293.198 73.2061L293.193 73.1853C293.027 72.4917 293.165 71.7674 293.213 71.0559C293.261 70.3443 293.191 69.5626 292.705 69.0395C291.798 68.0642 290.186 68.5812 288.876 68.3346C288.108 68.1638 287.429 67.72 286.966 67.0864C286.503 66.4527 286.288 65.6725 286.36 64.8918C286.379 64.7439 286.408 64.5959 286.441 64.4479C286.523 64.073 286.516 63.6842 286.422 63.3121C286.328 62.94 286.149 62.5948 285.898 62.3034C285.648 62.0121 285.333 61.7826 284.978 61.633C284.624 61.4833 284.239 61.4176 283.855 61.441C282.531 61.5165 281.101 61.9165 280.006 60.9387C279.158 60.1825 278.952 58.2142 279.324 57.143C279.95 55.3428 283.957 54.4004 285.707 53.8823C287.871 53.2589 290.148 53.1242 292.371 53.4878C294.594 53.8514 296.707 54.7042 298.558 55.9843C299.663 56.7609 300.696 57.7367 301.167 59.0003C301.638 60.2638 301.411 61.8579 300.348 62.692C301.172 63.5611 301.752 64.6306 302.03 65.7934C302.308 66.9562 302.275 68.1714 301.933 69.3174C301.408 71.0027 298.904 72.6184 297.641 73.3431Z" fill="#2F2E41"/>
<path d="M42.3889 123.942C41.843 123.887 41.3157 123.714 40.8442 123.434C40.3728 123.154 39.9686 122.774 39.6602 122.322C39.3518 121.87 39.1466 121.355 39.0592 120.815C38.9717 120.275 39.0041 119.723 39.154 119.197L28.2275 111.571L34.6718 109.028L44.0598 116.659C44.9298 116.968 45.6556 117.585 46.0998 118.393C46.5439 119.2 46.6754 120.142 46.4694 121.04C46.2635 121.938 45.7343 122.729 44.9823 123.264C44.2302 123.799 43.3075 124.04 42.3889 123.942Z" fill="#FFB8B8"/>
<path d="M36.4557 118.145L26.5606 112.424C25.5664 111.864 24.7 111.104 24.0165 110.192C23.333 109.28 22.8473 108.236 22.5903 107.127C22.3582 106.078 22.3443 104.992 22.5495 103.937C22.7547 102.882 23.1746 101.88 23.7833 100.993L31.9746 88.9484C32.5541 88.0963 33.4351 87.4939 34.4412 87.2619C35.4473 87.03 36.5042 87.1856 37.4001 87.6976C38.296 88.2096 38.9647 89.0402 39.2722 90.0229C39.5798 91.0057 39.5034 92.0679 39.0585 92.9969L32.6622 106.356L39.1419 112.044C39.3659 112.241 39.5333 112.494 39.6268 112.777C39.7203 113.06 39.7365 113.362 39.6738 113.653L38.9403 117.049C38.8859 117.308 38.7701 117.55 38.6027 117.755C38.4353 117.96 38.2211 118.122 37.978 118.228C37.7361 118.336 37.4716 118.385 37.2068 118.371C36.942 118.357 36.6845 118.279 36.4557 118.145Z" fill="#3F3D56"/>
<path d="M81.2909 91.3816C81.1249 91.903 80.8462 92.3817 80.4745 92.784C80.1028 93.1864 79.6472 93.5027 79.1396 93.7105C78.6321 93.9183 78.085 94.0127 77.5369 93.987C76.9888 93.9612 76.453 93.816 75.9673 93.5615L66.2344 102.653L65.0625 95.8428L74.4847 88.2537C74.9677 87.4687 75.7227 86.8875 76.6068 86.6203C77.4909 86.3531 78.4425 86.4185 79.2815 86.8041C80.1204 87.1896 80.7884 87.8686 81.1587 88.7122C81.5291 89.5559 81.5761 90.5057 81.2909 91.3816Z" fill="#FFB8B8"/>
<path d="M41.4271 79.4473C46.49 79.4473 50.5944 75.3558 50.5944 70.3087C50.5944 65.2616 46.49 61.1702 41.4271 61.1702C36.3641 61.1702 32.2598 65.2616 32.2598 70.3087C32.2598 75.3558 36.3641 79.4473 41.4271 79.4473Z" fill="#FFB8B8"/>
<path d="M68.4193 195.325L72.8054 194.024L69.8589 176.541L63.3857 178.461L68.4193 195.325Z" fill="#FFB8B8"/>
<path d="M66.874 194.229L75.5114 191.667C76.2342 191.453 76.9927 191.383 77.7429 191.46C78.493 191.538 79.2204 191.762 79.8836 192.12C80.5468 192.478 81.1328 192.963 81.6081 193.546C82.0834 194.13 82.4388 194.802 82.6538 195.522L82.707 195.7L68.5651 199.895L66.874 194.229Z" fill="#2F2E41"/>
<path d="M20.3682 195.101H24.9438L27.1209 177.506H22.6069L20.3682 195.101Z" fill="#FFB8B8"/>
<path d="M19.2012 193.612L28.2127 193.611H28.2131C28.9673 193.611 29.7141 193.759 30.4109 194.047C31.1076 194.335 31.7407 194.756 32.274 195.288C32.8073 195.82 33.2303 196.451 33.5189 197.145C33.8075 197.84 33.9561 198.584 33.9561 199.336V199.522L19.2015 199.523L19.2012 193.612Z" fill="#2F2E41"/>
<path d="M65.1449 189.028L47.9807 139.792C47.9447 139.684 47.8755 139.589 47.783 139.522C47.6905 139.455 47.5792 139.418 47.4648 139.417C47.35 139.411 47.2362 139.442 47.1403 139.505C47.0443 139.568 46.9714 139.66 46.9322 139.768L27.1542 189.056C27.0254 189.38 26.7977 189.656 26.5033 189.845C26.2089 190.033 25.8626 190.125 25.5132 190.107L20.351 189.857C20.1025 189.845 19.8597 189.778 19.6402 189.661C19.4208 189.544 19.2302 189.38 19.0822 189.18C18.9342 188.981 18.8325 188.751 18.7845 188.508C18.7365 188.264 18.7433 188.013 18.8046 187.773L37.5128 114.271L56.2823 112.745L56.4048 112.921C56.5063 113.067 66.5489 127.805 66.5427 153.25L72.9779 188.175C73.0223 188.417 73.013 188.665 72.9505 188.902C72.8881 189.14 72.774 189.361 72.6164 189.549C72.4588 189.738 72.2615 189.89 72.0385 189.994C71.8155 190.098 71.5722 190.152 71.3259 190.152H66.7314C66.3826 190.152 66.0425 190.044 65.7582 189.842C65.474 189.641 65.2596 189.356 65.1449 189.028Z" fill="#2F2E41"/>
<path d="M30.823 97.5998C30.1627 95.715 29.9996 93.6925 30.3496 91.7267C30.6996 89.7609 31.5509 87.9179 32.8216 86.3747C34.0627 84.8403 35.6788 83.6497 37.5145 82.9173C39.3503 82.185 41.3441 81.9354 43.3045 82.1925C43.4601 82.2132 43.6147 82.2342 43.7683 82.2554C46.2637 82.5912 48.5833 83.7225 50.3808 85.4804C52.1783 87.2383 53.3574 89.5285 53.742 92.0092L57.2473 114.233L37.2635 115.737L37.1201 115.747L30.823 97.5998Z" fill="#3F3D56"/>
<path d="M59.9842 106.618C58.8906 106.58 57.8168 106.317 56.831 105.843C55.8452 105.37 54.9689 104.698 54.2579 103.869L44.8048 92.9446C44.0714 92.1256 43.6877 91.0536 43.7354 89.9567C43.7649 89.3834 43.9166 88.8229 44.1804 88.3126C44.4443 87.8022 44.8142 87.3538 45.2655 86.9972C46.0104 86.4043 46.9393 86.0888 47.8924 86.1048C48.8455 86.1209 49.7632 86.4675 50.4877 87.0852L61.7611 96.7166L68.6968 91.9069C68.9456 91.7341 69.2367 91.6319 69.5392 91.6109C69.8417 91.5899 70.1442 91.651 70.4146 91.7877L73.7341 93.4628C73.9713 93.5825 74.1766 93.7567 74.3331 93.971C74.4896 94.1853 74.5929 94.4336 74.6344 94.6955C74.6758 94.9573 74.6544 95.2252 74.5717 95.4771C74.489 95.7291 74.3476 95.9579 74.1589 96.1447L65.9053 104.316C65.1697 105.049 64.2961 105.631 63.3346 106.027C62.3731 106.423 61.3427 106.625 60.3024 106.623C60.1967 106.623 60.0906 106.622 59.9842 106.618Z" fill="#3F3D56"/>
<path d="M48.3978 68.0264C49.5393 68.4679 50.7421 68.7317 51.964 68.8087C53.193 68.824 54.4994 68.3997 55.172 67.4666C55.43 67.059 55.5966 66.6006 55.6603 66.1228C55.724 65.6451 55.6833 65.1593 55.5411 64.6986C55.2864 63.7648 54.8282 62.8986 54.1989 62.1617C53.5697 61.4248 52.7851 60.8354 51.901 60.4357C50.9721 60.0157 49.9691 59.7826 48.9495 59.7499C47.93 59.7172 46.914 59.8855 45.9599 60.2451C45.2701 58.1549 42.6723 57.0173 40.2677 56.953C35.3559 56.8216 30.9641 60.1602 28.83 64.1748C26.6959 68.1894 26.3842 72.7783 26.2515 77.2335C26.2191 78.3201 26.2056 79.453 26.7219 80.4339C27.4907 81.8946 29.2378 82.6812 30.8845 83.305C35.2027 84.9382 39.6577 86.1865 44.1971 87.0354C42.0175 85.6466 41.3262 82.6574 42.7067 80.5913C43.3822 79.5805 44.4913 78.7389 44.6708 77.5681C44.886 76.1643 43.6845 74.9367 43.24 73.5779C43.0154 72.8423 43.0052 72.0582 43.2107 71.3171C43.4162 70.5759 43.8288 69.9083 44.4005 69.3921C45.0227 68.8532 45.7667 68.4727 46.5687 68.2832C47.3706 68.0936 48.2068 68.1006 49.0055 68.3035" fill="#2F2E41"/>
<path d="M92.9383 200H0.373246C0.274255 200 0.179318 199.961 0.109321 199.891C0.0393238 199.821 0 199.727 0 199.628C0 199.529 0.0393238 199.435 0.109321 199.365C0.179318 199.295 0.274255 199.256 0.373246 199.256H92.9383C93.0373 199.256 93.1322 199.295 93.2022 199.365C93.2722 199.435 93.3116 199.529 93.3116 199.628C93.3116 199.727 93.2722 199.821 93.2022 199.891C93.1322 199.961 93.0373 200 92.9383 200Z" fill="#CCCCCC"/>
<path d="M318.379 200H252.688C252.589 200 252.494 199.961 252.424 199.891C252.354 199.821 252.314 199.727 252.314 199.628C252.314 199.529 252.354 199.435 252.424 199.365C252.494 199.295 252.589 199.256 252.688 199.256H318.379C318.478 199.256 318.573 199.295 318.643 199.365C318.713 199.435 318.752 199.529 318.752 199.628C318.752 199.727 318.713 199.821 318.643 199.891C318.573 199.961 318.478 200 318.379 200Z" fill="#CCCCCC"/>
</g>
<defs>
<clipPath id="clip0_340_192">
<rect width="318.752" height="200" fill="white"/>
</clipPath>
</defs>
</svg>
