<svg width="115" height="102" viewBox="0 0 115 102" fill="none" xmlns="http://www.w3.org/2000/svg">
<path fill-rule="evenodd" clip-rule="evenodd" d="M47.1315 20.7331C57.1795 15.7023 61.8259 0.77973 73.051 0.262442C83.8038 -0.233079 91.8335 10.3237 99.0148 18.3422C106.251 26.422 114.918 35.4909 114.3 46.3198C113.684 57.0918 100.857 62.5739 95.9389 72.1774C91.3983 81.0433 95.7575 95.6177 86.8101 99.9957C77.4722 104.565 67.5251 94.1179 57.6334 90.9202C51.1467 88.8233 45.3841 85.6421 38.6747 84.435C26.1817 82.1875 7.26919 92.1558 1.54004 80.8287C-4.08679 69.704 16.7347 61.5499 21.2152 49.916C24.2232 42.1056 17.3399 31.6314 22.8975 25.3733C28.4718 19.0964 39.6251 24.4915 47.1315 20.7331Z" fill="#45DEFF"/>
</svg>
