<svg width="214" height="151" viewBox="0 0 214 151" fill="none" xmlns="http://www.w3.org/2000/svg">
<rect width="214" height="150.436" rx="10" fill="#46A1DA"/>
<path d="M42.032 119.624C42.032 117.992 42.4 116.528 43.136 115.232C43.872 113.92 44.872 112.896 46.136 112.16C47.416 111.424 48.832 111.056 50.384 111.056C52.208 111.056 53.8 111.496 55.16 112.376C56.52 113.256 57.512 114.504 58.136 116.12H55.52C55.056 115.112 54.384 114.336 53.504 113.792C52.64 113.248 51.6 112.976 50.384 112.976C49.216 112.976 48.168 113.248 47.24 113.792C46.312 114.336 45.584 115.112 45.056 116.12C44.528 117.112 44.264 118.28 44.264 119.624C44.264 120.952 44.528 122.12 45.056 123.128C45.584 124.12 46.312 124.888 47.24 125.432C48.168 125.976 49.216 126.248 50.384 126.248C51.6 126.248 52.64 125.984 53.504 125.456C54.384 124.912 55.056 124.136 55.52 123.128H58.136C57.512 124.728 56.52 125.968 55.16 126.848C53.8 127.712 52.208 128.144 50.384 128.144C48.832 128.144 47.416 127.784 46.136 127.064C44.872 126.328 43.872 125.312 43.136 124.016C42.4 122.72 42.032 121.256 42.032 119.624ZM60.5711 121.376C60.5711 120.032 60.8431 118.856 61.3871 117.848C61.9311 116.824 62.6751 116.032 63.6191 115.472C64.5791 114.912 65.6431 114.632 66.8111 114.632C67.9631 114.632 68.9631 114.88 69.8111 115.376C70.6591 115.872 71.2911 116.496 71.7071 117.248V114.848H73.9151V128H71.7071V125.552C71.2751 126.32 70.6271 126.96 69.7631 127.472C68.9151 127.968 67.9231 128.216 66.7871 128.216C65.6191 128.216 64.5631 127.928 63.6191 127.352C62.6751 126.776 61.9311 125.968 61.3871 124.928C60.8431 123.888 60.5711 122.704 60.5711 121.376ZM71.7071 121.4C71.7071 120.408 71.5071 119.544 71.1071 118.808C70.7071 118.072 70.1631 117.512 69.4751 117.128C68.8031 116.728 68.0591 116.528 67.2431 116.528C66.4271 116.528 65.6831 116.72 65.0111 117.104C64.3391 117.488 63.8031 118.048 63.4031 118.784C63.0031 119.52 62.8031 120.384 62.8031 121.376C62.8031 122.384 63.0031 123.264 63.4031 124.016C63.8031 124.752 64.3391 125.32 65.0111 125.72C65.6831 126.104 66.4271 126.296 67.2431 126.296C68.0591 126.296 68.8031 126.104 69.4751 125.72C70.1631 125.32 70.7071 124.752 71.1071 124.016C71.5071 123.264 71.7071 122.392 71.7071 121.4ZM84.0138 114.608C85.6138 114.608 86.9098 115.096 87.9018 116.072C88.8938 117.032 89.3898 118.424 89.3898 120.248V128H87.2298V120.56C87.2298 119.248 86.9018 118.248 86.2458 117.56C85.5898 116.856 84.6938 116.504 83.5578 116.504C82.4058 116.504 81.4858 116.864 80.7978 117.584C80.1258 118.304 79.7898 119.352 79.7898 120.728V128H77.6058V114.848H79.7898V116.72C80.2218 116.048 80.8058 115.528 81.5418 115.16C82.2938 114.792 83.1178 114.608 84.0138 114.608ZM92.1414 121.376C92.1414 120.032 92.4134 118.856 92.9574 117.848C93.5014 116.824 94.2454 116.032 95.1894 115.472C96.1494 114.912 97.2214 114.632 98.4054 114.632C99.4294 114.632 100.381 114.872 101.261 115.352C102.141 115.816 102.813 116.432 103.277 117.2V110.24H105.485V128H103.277V125.528C102.845 126.312 102.205 126.96 101.357 127.472C100.509 127.968 99.5174 128.216 98.3814 128.216C97.2134 128.216 96.1494 127.928 95.1894 127.352C94.2454 126.776 93.5014 125.968 92.9574 124.928C92.4134 123.888 92.1414 122.704 92.1414 121.376ZM103.277 121.4C103.277 120.408 103.077 119.544 102.677 118.808C102.277 118.072 101.733 117.512 101.045 117.128C100.373 116.728 99.6294 116.528 98.8134 116.528C97.9974 116.528 97.2534 116.72 96.5814 117.104C95.9094 117.488 95.3734 118.048 94.9734 118.784C94.5734 119.52 94.3734 120.384 94.3734 121.376C94.3734 122.384 94.5734 123.264 94.9734 124.016C95.3734 124.752 95.9094 125.32 96.5814 125.72C97.2534 126.104 97.9974 126.296 98.8134 126.296C99.6294 126.296 100.373 126.104 101.045 125.72C101.733 125.32 102.277 124.752 102.677 124.016C103.077 123.264 103.277 122.392 103.277 121.4ZM110.304 112.712C109.888 112.712 109.536 112.568 109.248 112.28C108.96 111.992 108.816 111.64 108.816 111.224C108.816 110.808 108.96 110.456 109.248 110.168C109.536 109.88 109.888 109.736 110.304 109.736C110.704 109.736 111.04 109.88 111.312 110.168C111.6 110.456 111.744 110.808 111.744 111.224C111.744 111.64 111.6 111.992 111.312 112.28C111.04 112.568 110.704 112.712 110.304 112.712ZM111.36 114.848V128H109.176V114.848H111.36ZM114.266 121.376C114.266 120.032 114.538 118.856 115.082 117.848C115.626 116.824 116.37 116.032 117.314 115.472C118.274 114.912 119.346 114.632 120.53 114.632C121.554 114.632 122.506 114.872 123.386 115.352C124.266 115.816 124.938 116.432 125.402 117.2V110.24H127.61V128H125.402V125.528C124.97 126.312 124.33 126.96 123.482 127.472C122.634 127.968 121.642 128.216 120.506 128.216C119.338 128.216 118.274 127.928 117.314 127.352C116.37 126.776 115.626 125.968 115.082 124.928C114.538 123.888 114.266 122.704 114.266 121.376ZM125.402 121.4C125.402 120.408 125.202 119.544 124.802 118.808C124.402 118.072 123.858 117.512 123.17 117.128C122.498 116.728 121.754 116.528 120.938 116.528C120.122 116.528 119.378 116.72 118.706 117.104C118.034 117.488 117.498 118.048 117.098 118.784C116.698 119.52 116.498 120.384 116.498 121.376C116.498 122.384 116.698 123.264 117.098 124.016C117.498 124.752 118.034 125.32 118.706 125.72C119.378 126.104 120.122 126.296 120.938 126.296C121.754 126.296 122.498 126.104 123.17 125.72C123.858 125.32 124.402 124.752 124.802 124.016C125.202 123.264 125.402 122.392 125.402 121.4ZM130.485 121.376C130.485 120.032 130.757 118.856 131.301 117.848C131.845 116.824 132.589 116.032 133.533 115.472C134.493 114.912 135.557 114.632 136.725 114.632C137.877 114.632 138.877 114.88 139.725 115.376C140.573 115.872 141.205 116.496 141.621 117.248V114.848H143.829V128H141.621V125.552C141.189 126.32 140.541 126.96 139.677 127.472C138.829 127.968 137.837 128.216 136.701 128.216C135.533 128.216 134.477 127.928 133.533 127.352C132.589 126.776 131.845 125.968 131.301 124.928C130.757 123.888 130.485 122.704 130.485 121.376ZM141.621 121.4C141.621 120.408 141.421 119.544 141.021 118.808C140.621 118.072 140.077 117.512 139.389 117.128C138.717 116.728 137.973 116.528 137.157 116.528C136.341 116.528 135.597 116.72 134.925 117.104C134.253 117.488 133.717 118.048 133.317 118.784C132.917 119.52 132.717 120.384 132.717 121.376C132.717 122.384 132.917 123.264 133.317 124.016C133.717 124.752 134.253 125.32 134.925 125.72C135.597 126.104 136.341 126.296 137.157 126.296C137.973 126.296 138.717 126.104 139.389 125.72C140.077 125.32 140.621 124.752 141.021 124.016C141.421 123.264 141.621 122.392 141.621 121.4ZM150.184 116.648V124.4C150.184 125.04 150.32 125.496 150.592 125.768C150.864 126.024 151.336 126.152 152.008 126.152H153.616V128H151.648C150.432 128 149.52 127.72 148.912 127.16C148.304 126.6 148 125.68 148 124.4V116.648H146.296V114.848H148V111.536H150.184V114.848H153.616V116.648H150.184ZM168.262 120.92C168.262 121.336 168.238 121.776 168.19 122.24H157.678C157.758 123.536 158.198 124.552 158.998 125.288C159.814 126.008 160.798 126.368 161.95 126.368C162.894 126.368 163.678 126.152 164.302 125.72C164.942 125.272 165.39 124.68 165.646 123.944H167.998C167.646 125.208 166.942 126.24 165.886 127.04C164.83 127.824 163.518 128.216 161.95 128.216C160.702 128.216 159.582 127.936 158.59 127.376C157.614 126.816 156.846 126.024 156.286 125C155.726 123.96 155.446 122.76 155.446 121.4C155.446 120.04 155.718 118.848 156.262 117.824C156.806 116.8 157.566 116.016 158.542 115.472C159.534 114.912 160.67 114.632 161.95 114.632C163.198 114.632 164.302 114.904 165.262 115.448C166.222 115.992 166.958 116.744 167.47 117.704C167.998 118.648 168.262 119.72 168.262 120.92ZM166.006 120.464C166.006 119.632 165.822 118.92 165.454 118.328C165.086 117.72 164.582 117.264 163.942 116.96C163.318 116.64 162.622 116.48 161.854 116.48C160.75 116.48 159.806 116.832 159.022 117.536C158.254 118.24 157.814 119.216 157.702 120.464H166.006Z" fill="white"/>
<path d="M106.5 62.5C116.169 62.5 124 54.6688 124 45C124 35.3312 116.169 27.5 106.5 27.5C96.8312 27.5 89 35.3312 89 45C89 54.6688 96.8312 62.5 106.5 62.5ZM106.5 71.25C94.8187 71.25 71.5 77.1125 71.5 88.75V97.5H141.5V88.75C141.5 77.1125 118.181 71.25 106.5 71.25Z" fill="#FFF7F7"/>
</svg>
