<svg width="36" height="72" viewBox="0 0 36 72" fill="none" xmlns="http://www.w3.org/2000/svg">
<path d="M36 0C26.4522 -1.13856e-07 17.2955 3.79285 10.5442 10.5442C3.79285 17.2955 8.34695e-07 26.4522 0 36C-8.34694e-07 45.5478 3.79284 54.7045 10.5442 61.4558C17.2955 68.2072 26.4522 72 36 72L36 36V0Z" fill="url(#paint0_linear_331_74)"/>
<path d="M36 0C26.4522 -1.13856e-07 17.2955 3.79285 10.5442 10.5442C3.79285 17.2955 8.34695e-07 26.4522 0 36C-8.34694e-07 45.5478 3.79284 54.7045 10.5442 61.4558C17.2955 68.2072 26.4522 72 36 72L36 36V0Z" fill="url(#paint1_linear_331_74)"/>
<defs>
<linearGradient id="paint0_linear_331_74" x1="36" y1="0" x2="-21.6" y2="28.8" gradientUnits="userSpaceOnUse">
<stop stop-color="#F76680"/>
<stop offset="1" stop-color="#57007B"/>
</linearGradient>
<linearGradient id="paint1_linear_331_74" x1="36" y1="0" x2="-21.6" y2="28.8" gradientUnits="userSpaceOnUse">
<stop stop-color="#F76680"/>
<stop offset="1" stop-color="#57007B"/>
</linearGradient>
</defs>
</svg>
