<svg width="370" height="300" viewBox="0 0 370 300" fill="none" xmlns="http://www.w3.org/2000/svg">
<g clip-path="url(#clip0_340_250)">
<path d="M295.29 54.6458C293.368 75.8167 287.894 98.1402 279.309 119.679C268.693 146.315 254.188 169.776 237.362 187.526L236.429 186.712C253.173 169.048 267.612 145.69 278.184 119.164C287.739 95.1934 293.422 70.2479 294.626 47.0359L295.819 47.2356C295.693 49.6871 295.516 52.1572 295.29 54.6458Z" fill="#F2F2F2"/>
<path d="M302.943 177.602C279.31 215.2 250.639 242.064 222.21 253.244L221.635 252.19C249.867 241.087 278.37 214.36 301.895 176.935L302.943 177.602Z" fill="#F2F2F2"/>
<path d="M294.717 81.0042C292.795 102.175 287.321 124.499 278.736 146.038C268.12 172.674 253.615 196.135 236.789 213.884L235.855 213.07C252.6 195.406 267.038 172.049 277.611 145.523C287.165 121.552 292.848 96.6063 294.053 73.3943L295.246 73.594C295.119 76.0455 294.943 78.5156 294.717 81.0042Z" fill="#F2F2F2"/>
<path d="M29.4116 135.356H13.9058C13.5745 135.357 13.2474 135.283 12.9489 135.139C12.6505 134.995 12.3884 134.786 12.1825 134.526C11.979 134.273 11.8355 133.978 11.7626 133.661C11.6898 133.345 11.6895 133.016 11.7618 132.7C13.2386 126.184 13.1458 119.41 11.4912 112.937C11.3865 112.511 11.4118 112.063 11.5638 111.651C11.7158 111.239 11.9876 110.883 12.3441 110.627C20.3172 104.892 26.5963 105.059 31.0071 111.122C31.2059 111.398 31.338 111.717 31.3929 112.053C32.5715 119.138 32.6367 126.364 31.5863 133.469C31.5132 133.993 31.2527 134.473 30.8529 134.82C30.4531 135.167 29.941 135.358 29.4116 135.356Z" fill="#E6E6E6"/>
<path d="M24.6044 119.829H19.2703C18.9754 119.829 18.6925 119.711 18.4839 119.503C18.2754 119.294 18.1582 119.011 18.1582 118.716C18.1582 118.421 18.2754 118.139 18.4839 117.93C18.6925 117.721 18.9754 117.604 19.2703 117.604H24.6044C24.8989 117.605 25.1812 117.722 25.3893 117.931C25.5973 118.139 25.7142 118.422 25.7142 118.716C25.7142 119.011 25.5973 119.293 25.3893 119.502C25.1812 119.71 24.8989 119.828 24.6044 119.829Z" fill="white"/>
<path d="M24.6044 123.729H19.2703C18.9754 123.729 18.6925 123.612 18.4839 123.403C18.2754 123.195 18.1582 122.912 18.1582 122.617C18.1582 122.322 18.2754 122.039 18.4839 121.83C18.6925 121.622 18.9754 121.505 19.2703 121.505H24.6044C24.8989 121.505 25.1812 121.623 25.3893 121.831C25.5973 122.04 25.7142 122.322 25.7142 122.617C25.7142 122.911 25.5973 123.194 25.3893 123.402C25.1812 123.611 24.8989 123.728 24.6044 123.729Z" fill="white"/>
<path d="M24.6044 127.629H19.2703C18.9754 127.629 18.6925 127.512 18.4839 127.304C18.2754 127.095 18.1582 126.812 18.1582 126.517C18.1582 126.222 18.2754 125.939 18.4839 125.731C18.6925 125.522 18.9754 125.405 19.2703 125.405H24.6044C24.8989 125.406 25.1812 125.523 25.3893 125.732C25.5973 125.94 25.7142 126.223 25.7142 126.517C25.7142 126.812 25.5973 127.094 25.3893 127.303C25.1812 127.511 24.8989 127.629 24.6044 127.629Z" fill="white"/>
<path d="M311.213 204.588H295.708C295.376 204.588 295.049 204.514 294.751 204.37C294.452 204.227 294.19 204.017 293.984 203.758C293.781 203.505 293.637 203.209 293.564 202.893C293.492 202.577 293.491 202.248 293.564 201.932C295.04 195.415 294.948 188.642 293.293 182.168C293.188 181.742 293.214 181.294 293.366 180.883C293.518 180.471 293.789 180.114 294.146 179.858C302.119 174.124 308.398 174.29 312.809 180.354C313.008 180.63 313.14 180.949 313.195 181.285C314.373 188.37 314.438 195.595 313.388 202.7C313.315 203.225 313.054 203.705 312.655 204.052C312.255 204.399 311.743 204.589 311.213 204.588Z" fill="#E6E6E6"/>
<path d="M306.406 189.06H301.072C300.777 189.06 300.495 188.942 300.287 188.734C300.079 188.525 299.962 188.243 299.962 187.948C299.962 187.654 300.079 187.371 300.287 187.162C300.495 186.954 300.777 186.837 301.072 186.836H306.406C306.701 186.836 306.984 186.953 307.192 187.162C307.401 187.37 307.518 187.653 307.518 187.948C307.518 188.243 307.401 188.526 307.192 188.734C306.984 188.943 306.701 189.06 306.406 189.06Z" fill="white"/>
<path d="M306.406 192.961H301.072C300.777 192.96 300.495 192.843 300.287 192.634C300.079 192.426 299.962 192.143 299.962 191.848C299.962 191.554 300.079 191.271 300.287 191.063C300.495 190.854 300.777 190.737 301.072 190.736H306.406C306.701 190.736 306.984 190.854 307.192 191.062C307.401 191.271 307.518 191.554 307.518 191.848C307.518 192.143 307.401 192.426 307.192 192.635C306.984 192.843 306.701 192.961 306.406 192.961Z" fill="white"/>
<path d="M306.406 196.861H301.072C300.777 196.86 300.495 196.743 300.287 196.534C300.079 196.326 299.962 196.043 299.962 195.749C299.962 195.454 300.079 195.172 300.287 194.963C300.495 194.755 300.777 194.637 301.072 194.636H306.406C306.701 194.636 306.984 194.754 307.192 194.962C307.401 195.171 307.518 195.454 307.518 195.749C307.518 196.044 307.401 196.326 307.192 196.535C306.984 196.744 306.701 196.861 306.406 196.861Z" fill="white"/>
<path d="M369.887 299.42C369.887 299.496 369.872 299.572 369.843 299.642C369.814 299.713 369.771 299.777 369.717 299.831C369.663 299.884 369.599 299.927 369.529 299.956C369.458 299.985 369.383 300 369.306 300H0.580181C0.426308 300 0.278742 299.939 0.169937 299.83C0.0611326 299.721 0 299.574 0 299.42C0 299.266 0.0611326 299.118 0.169937 299.01C0.278742 298.901 0.426308 298.84 0.580181 298.84H369.306C369.383 298.839 369.458 298.854 369.529 298.883C369.599 298.912 369.663 298.955 369.717 299.009C369.771 299.063 369.814 299.127 369.843 299.197C369.872 299.268 369.887 299.344 369.887 299.42Z" fill="#CCCCCC"/>
<path d="M97.2667 263.897L96.2997 250.447C89.9648 247.28 82.9526 245.707 75.8721 245.866C85.8334 253.565 85.0356 268.955 91.9343 279.487C94.1112 282.755 96.9956 285.492 100.374 287.494C103.752 289.496 107.538 290.712 111.45 291.052L119.74 295.821C120.688 289.553 120.267 283.154 118.504 277.065C116.741 270.976 113.679 265.341 109.529 260.549C107.174 257.884 104.493 255.526 101.549 253.531C99.7364 258.734 97.2667 263.897 97.2667 263.897Z" fill="#F2F2F2"/>
<path d="M272.619 265.847L273.586 252.397C279.921 249.23 286.933 247.657 294.014 247.816C284.052 255.516 284.85 270.905 277.951 281.437C275.775 284.705 272.89 287.442 269.512 289.444C266.134 291.446 262.348 292.662 258.436 293.002L250.146 297.772C249.198 291.504 249.619 285.105 251.382 279.015C253.145 272.926 256.207 267.291 260.357 262.5C262.712 259.834 265.393 257.476 268.337 255.481C270.149 260.684 272.619 265.847 272.619 265.847Z" fill="#F2F2F2"/>
<path d="M180.555 114.058C185.671 114.058 189.819 109.91 189.819 104.794C189.819 99.6784 185.671 95.531 180.555 95.531C175.439 95.531 171.292 99.6784 171.292 104.794C171.292 109.91 175.439 114.058 180.555 114.058Z" fill="#6C63FF"/>
<path d="M185.311 100.934C185.172 100.801 184.987 100.727 184.794 100.727C184.601 100.727 184.416 100.801 184.277 100.934C182.311 102.501 180.546 104.305 179.02 106.303C178.646 105.578 178.271 104.854 177.897 104.129C177.464 103.292 176.202 104.031 176.634 104.867C177.181 105.927 177.729 106.987 178.277 108.047C178.343 108.155 178.436 108.245 178.547 108.307C178.657 108.369 178.782 108.401 178.909 108.401C179.035 108.401 179.16 108.369 179.271 108.307C179.381 108.245 179.474 108.155 179.54 108.047C181.166 105.757 183.109 103.71 185.311 101.968C185.447 101.83 185.523 101.644 185.523 101.451C185.523 101.257 185.447 101.071 185.311 100.934Z" fill="white"/>
<path d="M139.107 131.062L125.138 109.124L141.313 100.461L145.559 117.199L175.473 133.363C176.654 132.938 177.933 132.866 179.154 133.155C180.375 133.445 181.486 134.083 182.351 134.993C183.216 135.903 183.797 137.045 184.024 138.279C184.251 139.513 184.114 140.787 183.63 141.945C183.145 143.103 182.334 144.095 181.296 144.8C180.258 145.505 179.036 145.893 177.782 145.916C176.527 145.939 175.292 145.596 174.228 144.93C173.165 144.263 172.318 143.302 171.792 142.163L139.107 131.062Z" fill="#A0616A"/>
<path d="M114.932 82.8126C110.543 89.2569 126.141 112.681 126.141 112.681C126.9 111.043 134.164 129.436 135.381 128.35C138.838 125.262 144.251 116.66 147.26 116.277C148.98 116.057 143.269 103.855 143.269 103.855C143.269 103.855 140.659 96.649 137.117 87.4444C136.164 84.8236 134.564 82.4865 132.464 80.6507C130.365 78.8149 127.836 77.5401 125.111 76.9449C125.111 76.9449 119.321 76.3684 114.932 82.8126Z" fill="#3F3D56"/>
<path d="M115.146 292.767L121.78 292.767L124.936 267.178L115.145 267.178L115.146 292.767Z" fill="#A0616A"/>
<path d="M113.454 290.601L115.321 290.601L122.612 287.636L126.519 290.601H126.52C128.728 290.601 130.845 291.478 132.407 293.039C133.968 294.601 134.846 296.718 134.846 298.927V299.197L113.454 299.198L113.454 290.601Z" fill="#2F2E41"/>
<path d="M145.967 292.767L152.601 292.767L155.757 267.178L145.966 267.178L145.967 292.767Z" fill="#A0616A"/>
<path d="M144.274 290.601L146.142 290.601L153.432 287.636L157.339 290.601H157.34C159.548 290.601 161.666 291.478 163.227 293.039C164.789 294.601 165.666 296.718 165.666 298.927V299.197L144.275 299.198L144.274 290.601Z" fill="#2F2E41"/>
<path d="M148.838 152.871L105.687 153.95C97.4917 158.401 97.3672 168.035 100.052 179.474C100.052 179.474 99.146 186.273 100.959 188.086C102.772 189.899 103.678 189.899 102.772 193.071C101.865 196.244 106.655 201.426 106.073 202.008C105.491 202.59 104.132 205.762 104.132 205.762L108.664 231.598C108.664 231.598 111.837 276.469 112.743 277.376C113.65 278.282 114.556 277.376 113.65 279.642C112.743 281.908 111.837 281.002 112.743 281.908C113.546 282.774 114.303 283.682 115.01 284.628H125.968C125.968 284.628 126.794 280.095 126.794 279.642C126.794 279.189 127.701 276.469 127.701 276.016C127.701 275.563 126.9 274.762 126.9 274.762C126.623 273.84 126.436 272.894 126.341 271.937C126.341 271.03 123.621 236.13 123.621 236.13L129.06 190.805L142.205 235.224C142.205 235.224 142.205 274.203 143.111 275.11C144.018 276.016 144.018 275.563 143.564 277.376C143.111 279.189 141.298 278.736 142.658 280.095C144.018 281.455 144.471 279.189 144.018 281.455L143.565 283.721L157.162 283.916C157.162 283.916 158.975 280.095 158.068 278.736C157.162 277.376 157.216 277.747 158.322 275.522C159.428 273.297 159.882 272.843 159.428 272.39C158.975 271.937 158.975 269.526 158.975 269.526L156.709 226.159C156.709 226.159 156.255 180.38 156.255 179.021C156.221 178.321 156.35 177.623 156.632 176.982V175.136L154.896 168.596L148.838 152.871Z" fill="#2F2E41"/>
<path d="M122.917 63.1446C130.322 63.1446 136.325 57.1419 136.325 49.7372C136.325 42.3325 130.322 36.3298 122.917 36.3298C115.512 36.3298 109.51 42.3325 109.51 49.7372C109.51 57.1419 115.512 63.1446 122.917 63.1446Z" fill="#A0616A"/>
<path d="M129.62 72.0059C132.509 73.7231 134.237 76.8782 135.228 80.0888C137.065 86.0328 138.17 92.1784 138.52 98.3898L139.568 116.985L152.543 156.581C141.298 166.096 99.0298 158.743 99.0298 158.743C99.0298 158.743 97.7323 158.311 99.0298 157.013C100.327 155.716 101.59 156.865 100.293 155.568C98.9954 154.27 99.8899 155.716 100.322 154.418C100.755 153.121 100.322 153.986 99.8899 153.553C99.4574 153.121 103.238 149.228 103.238 149.228L99.7781 126.5L95.4531 80.6558C100.643 74.1683 111.081 70.344 111.081 70.344L113.778 65.4895L127.263 66.5683L129.62 72.0059Z" fill="#3F3D56"/>
<path d="M133.969 42.614C135.011 43.3912 135.783 44.4757 136.176 45.7147C136.327 43.6899 136.337 41.6569 136.205 39.6308C136.047 38.207 135.044 37.8867 133.884 37.5156C132.835 37.1803 131.65 36.8016 131.331 35.4194C127.117 31.3194 119.78 31.5262 114.759 32.9563C111.996 33.7433 110.406 34.7544 110.264 35.3467L110.235 35.4686L110.123 35.5247C107.993 36.5896 107.578 39.9521 107.606 42.5853C107.658 47.5465 109.371 53.1811 110.336 53.6389C110.387 53.6631 110.4 53.6536 110.422 53.6352C111.875 52.474 113.648 53.7234 114.427 54.4027C114.886 51.3192 116.366 48.4787 118.629 46.3347C120.892 44.1908 123.809 42.8671 126.912 42.575C127.926 42.4771 128.932 42.3085 129.922 42.0704C130.424 41.9405 130.94 41.8727 131.459 41.8687C132.352 41.8551 133.228 42.1152 133.969 42.614Z" fill="#2F2E41"/>
<path d="M217.201 163.554L242.992 137.364L249.787 116.417L238.852 111.995C233.435 117.459 227.859 134.185 227.859 134.185L210.256 157.811C210.116 157.863 209.975 157.918 209.837 157.984C209.027 158.366 208.329 158.952 207.811 159.683C207.292 160.414 206.972 161.267 206.879 162.158C206.787 163.05 206.926 163.95 207.283 164.772C207.64 165.594 208.204 166.31 208.918 166.851C209.633 167.391 210.475 167.738 211.364 167.859C212.252 167.979 213.156 167.868 213.989 167.536C214.821 167.205 215.554 166.664 216.117 165.967C216.68 165.269 217.053 164.438 217.201 163.554Z" fill="#FFB8B8"/>
<path d="M235.869 114.391L249.698 118.391L249.749 118.381C254.832 117.394 258.853 108.947 261.331 102.035C262.146 99.7546 262.065 97.2501 261.104 95.0275C260.143 92.8049 258.375 91.03 256.155 90.0616C254.514 89.3583 252.708 89.1282 250.942 89.3975C249.176 89.6668 247.521 90.4246 246.163 91.5853L239.268 97.5223L235.869 114.391Z" fill="#6C63FF"/>
<path d="M224.038 291.989L216.601 291.988L213.063 263.304L224.039 263.304L224.038 291.989Z" fill="#FFB8B8"/>
<path d="M225.935 289.561L223.842 289.561L215.669 286.237L211.289 289.56H211.289C208.813 289.56 206.439 290.544 204.689 292.294C202.939 294.044 201.955 296.418 201.955 298.894V299.197L225.935 299.198L225.935 289.561Z" fill="#2F2E41"/>
<path d="M257.036 291.989L249.599 291.988L246.062 263.304L257.038 263.304L257.036 291.989Z" fill="#FFB8B8"/>
<path d="M258.933 289.561L256.84 289.561L248.667 286.237L244.287 289.56H244.287C241.811 289.56 239.437 290.544 237.687 292.294C235.937 294.044 234.953 296.418 234.953 298.894V299.197L258.933 299.198L258.933 289.561Z" fill="#2F2E41"/>
<path d="M268.376 168.432C268.376 168.432 269.244 178.853 267.074 188.839C264.903 198.826 264.903 226.951 264.903 226.951L260.126 281.757L245.798 280.454L241.89 188.84L227.996 219.667L229.299 224.009L227.564 225.095C227.564 225.095 228.865 233.561 227.996 233.561C227.128 233.561 224.957 234.864 224.957 234.864L226.694 279.586L211.931 279.152L206.721 216.194L212.365 180.156L212.799 173.209L214.753 173.289L215.748 170.386L217.576 165.393L268.376 168.432Z" fill="#2F2E41"/>
<path d="M269.127 170.621L269.204 170.513C273.337 164.726 267.121 150.823 266.183 148.807L270.132 147.526L269.243 139.967L268.822 136.598L271.84 133.58L271.848 133.504L273.585 118.308L276.11 108.214C277.062 104.398 276.98 100.398 275.875 96.6243C274.77 92.8502 272.68 89.4384 269.82 86.7388L263.983 81.2353L256.89 70.739H245.45L241.528 78.1478C237.725 79.0268 234.351 81.2119 231.994 84.3226C229.636 87.4333 228.445 91.2725 228.627 95.1713L229.516 114.602L226.036 138.796L226.034 143.174L222.117 147.527L222.973 151.803L219.992 153.08L218.676 159.222C218.131 159.94 214.536 164.734 214.536 166.044C214.536 166.241 214.681 166.431 214.993 166.642C217.443 168.301 230.984 171.683 236.978 169.285C243.362 166.733 268.739 170.562 268.995 170.601L269.127 170.621Z" fill="#6C63FF"/>
<path d="M249.692 67.3505C258.059 67.3505 264.842 60.5675 264.842 52.2003C264.842 43.833 258.059 37.05 249.692 37.05C241.325 37.05 234.542 43.833 234.542 52.2003C234.542 60.5675 241.325 67.3505 249.692 67.3505Z" fill="#FFB8B8"/>
<path d="M248.24 67.5958C250.587 67.5718 252.927 67.3475 255.235 66.9252C257.52 66.3988 262.561 62.5004 263.935 60.1973C264.956 58.4862 265.569 55.8395 265.903 53.9206C266.355 51.3811 266.268 48.7751 265.648 46.2713C265.028 43.7676 263.889 41.4219 262.305 39.3862C261.695 38.5334 260.865 37.8614 259.904 37.4414C259.819 37.4107 259.732 37.3838 259.643 37.3611C258.25 37.0327 256.987 36.2955 256.016 35.244C255.827 35.0311 255.624 34.8321 255.407 34.6484C254.317 33.7762 253.037 33.1742 251.67 32.8915C249.462 32.3613 246.304 33.0257 242.283 34.8681C240.263 35.7937 238.021 35.5355 236.293 35.2071C236.196 35.191 236.097 35.2005 236.005 35.2347C235.913 35.2689 235.831 35.3266 235.769 35.4021C235.055 36.1074 234.101 36.5165 233.099 36.5472C232.485 36.59 231.863 37.4571 231.112 38.5863C230.942 38.8426 230.743 39.1417 230.599 39.3243L230.57 38.9815L230.233 39.3735C229.702 39.9895 229.336 40.7299 229.169 41.5255C229.001 42.3212 229.038 43.1463 229.275 43.924C229.512 44.7016 229.943 45.4066 230.526 45.9733C231.109 46.5399 231.826 46.9498 232.61 47.1648C233.232 47.3132 233.868 47.3977 234.507 47.417C234.895 47.4418 235.296 47.4675 235.681 47.5241C236.917 47.7443 238.076 48.2813 239.043 49.0829C240.01 49.8844 240.753 50.923 241.199 52.0973C241.304 52.3687 241.47 52.6123 241.685 52.8092C241.899 53.0062 242.156 53.1512 242.435 53.2331C242.714 53.3151 243.009 53.3318 243.296 53.2819C243.582 53.232 243.854 53.1168 244.089 52.9454C244.48 52.6241 244.943 52.4023 245.439 52.2988C245.935 52.1953 246.448 52.2132 246.935 52.3509C247.358 52.5723 247.693 52.9327 247.883 53.3715C248.112 53.8599 248.481 54.2691 248.944 54.5467C250.521 55.3091 250.72 58.8617 250.238 61.84C249.772 64.7108 248.76 66.805 247.777 66.9326C247.019 67.0308 246.934 67.087 246.882 67.2227L246.836 67.3441L246.925 67.4544C247.348 67.5956 247.797 67.6438 248.24 67.5958Z" fill="#2F2E41"/>
<path d="M235.671 116.011L228.389 106.732C220.971 108.775 207.809 120.507 207.809 120.507L180.779 132.237C179.876 132.085 178.95 132.174 178.093 132.494C177.236 132.814 176.479 133.354 175.897 134.06C175.315 134.766 174.929 135.613 174.779 136.516C174.628 137.418 174.718 138.344 175.039 139.201C175.361 140.057 175.902 140.814 176.608 141.395C177.315 141.976 178.162 142.361 179.065 142.51C179.967 142.659 180.893 142.568 181.75 142.246C182.606 141.924 183.362 141.382 183.942 140.675L219.351 130.796L235.671 116.011Z" fill="#FFB8B8"/>
<path d="M233.926 118.132L245.416 105.323L246.054 96.2472C246.173 94.4649 245.791 92.685 244.951 91.1085C244.111 89.532 242.847 88.2218 241.302 87.3259C239.199 86.1257 236.719 85.7687 234.363 86.3272C232.006 86.8858 229.95 88.3181 228.61 90.3346C224.55 96.4537 220.182 104.727 222.43 109.391L222.452 109.439L233.926 118.132Z" fill="#6C63FF"/>
<path d="M128.02 166.278L98.1556 150.983C96.0314 149.895 95.3277 147.009 96.5871 144.55L116.059 106.529C117.319 104.07 120.071 102.955 122.196 104.043L152.06 119.338C154.184 120.426 154.888 123.311 153.629 125.77L134.156 163.791C132.897 166.25 130.144 167.365 128.02 166.278Z" fill="#E6E6E6"/>
<path d="M122.917 159.246L102.627 148.855C100.637 147.836 99.9783 145.133 101.158 142.83L117.335 111.243C118.514 108.94 121.093 107.896 123.082 108.915L147.588 121.466C149.578 122.485 150.237 125.187 149.057 127.49L140.269 144.65C135.016 154.908 131.779 163.785 122.917 159.246Z" fill="white"/>
<path d="M132.949 141.997L114.978 132.793C114.758 132.636 114.602 132.406 114.538 132.143C114.474 131.881 114.506 131.605 114.629 131.365C114.752 131.125 114.958 130.937 115.208 130.835C115.458 130.734 115.736 130.726 115.991 130.813L133.963 140.017C134.183 140.174 134.339 140.404 134.403 140.666C134.467 140.928 134.434 141.205 134.311 141.445C134.188 141.685 133.983 141.873 133.733 141.974C133.483 142.076 133.205 142.084 132.949 141.997Z" fill="#6C63FF"/>
<path d="M117.075 138.805L112.974 136.704C112.754 136.547 112.598 136.317 112.534 136.055C112.47 135.793 112.503 135.516 112.626 135.276C112.749 135.036 112.954 134.848 113.204 134.747C113.454 134.645 113.732 134.638 113.988 134.724L118.089 136.825C118.309 136.981 118.465 137.212 118.529 137.474C118.593 137.736 118.56 138.012 118.437 138.253C118.314 138.493 118.109 138.681 117.859 138.782C117.609 138.883 117.33 138.891 117.075 138.805Z" fill="#6C63FF"/>
<path d="M122.336 146.436L110.971 140.615C110.751 140.459 110.595 140.228 110.531 139.966C110.467 139.704 110.5 139.428 110.623 139.187C110.746 138.947 110.951 138.759 111.201 138.658C111.451 138.557 111.729 138.549 111.985 138.635L123.35 144.456C123.57 144.613 123.726 144.843 123.79 145.105C123.854 145.367 123.821 145.644 123.698 145.884C123.575 146.124 123.37 146.312 123.12 146.413C122.87 146.515 122.591 146.523 122.336 146.436Z" fill="#6C63FF"/>
<path d="M140.061 128.11L122.089 118.906C121.869 118.75 121.713 118.519 121.649 118.257C121.585 117.995 121.618 117.719 121.741 117.479C121.864 117.238 122.069 117.051 122.319 116.949C122.569 116.848 122.847 116.84 123.103 116.927L141.074 126.131C141.294 126.287 141.45 126.518 141.514 126.78C141.578 127.042 141.546 127.318 141.423 127.559C141.3 127.799 141.094 127.987 140.844 128.088C140.594 128.189 140.316 128.197 140.061 128.11Z" fill="#6C63FF"/>
<path d="M124.187 124.918L120.086 122.818C119.866 122.661 119.71 122.431 119.646 122.168C119.582 121.906 119.615 121.63 119.738 121.39C119.861 121.15 120.066 120.962 120.316 120.86C120.566 120.759 120.844 120.751 121.1 120.838L125.201 122.938C125.421 123.095 125.577 123.325 125.641 123.587C125.705 123.85 125.672 124.126 125.549 124.366C125.426 124.606 125.221 124.794 124.971 124.896C124.721 124.997 124.443 125.005 124.187 124.918Z" fill="#6C63FF"/>
<path d="M129.448 132.55L118.083 126.729C117.863 126.572 117.707 126.342 117.643 126.08C117.579 125.818 117.612 125.541 117.735 125.301C117.858 125.061 118.063 124.873 118.313 124.772C118.563 124.67 118.842 124.662 119.097 124.749L130.462 130.57C130.682 130.726 130.838 130.957 130.902 131.219C130.966 131.481 130.933 131.758 130.81 131.998C130.687 132.238 130.482 132.426 130.232 132.527C129.982 132.628 129.704 132.636 129.448 132.55Z" fill="#6C63FF"/>
<path d="M103.272 133.177L96.5254 108.06L114.555 104.647L113.585 121.887L137.274 146.279C138.528 146.228 139.77 146.542 140.848 147.185C141.926 147.827 142.795 148.769 143.347 149.896C143.899 151.024 144.111 152.287 143.957 153.533C143.804 154.779 143.291 155.953 142.482 156.912C141.672 157.871 140.601 158.574 139.399 158.936C138.197 159.297 136.916 159.3 135.712 158.946C134.508 158.592 133.433 157.895 132.618 156.94C131.803 155.985 131.284 154.814 131.123 153.569L103.272 133.177Z" fill="#A0616A"/>
<path d="M94.6806 79.8984C88.5609 84.7297 96.4156 111.754 96.4156 111.754C97.6317 110.419 99.0449 130.144 100.531 129.472C104.756 127.563 112.499 120.981 115.484 121.517C117.192 121.824 115.403 108.47 115.403 108.47C115.403 108.47 115.074 100.814 114.456 90.9706C114.333 88.1846 113.507 85.475 112.054 83.0941C110.602 80.7133 108.572 78.7385 106.151 77.3536C106.151 77.3536 100.8 75.0672 94.6806 79.8984Z" fill="#3F3D56"/>
<path d="M196.508 188.926L180.211 181.231C179.862 181.067 179.555 180.827 179.313 180.527C179.071 180.228 178.899 179.878 178.812 179.503C178.723 179.136 178.719 178.754 178.8 178.386C178.88 178.017 179.043 177.671 179.276 177.375C183.997 171.341 187.238 164.286 188.74 156.774C188.854 156.199 189.164 155.681 189.616 155.308C190.069 154.936 190.637 154.732 191.223 154.731C199.535 154.759 205.747 157.794 209.686 163.75C209.893 164.06 210.031 164.412 210.089 164.78C210.147 165.149 210.124 165.525 210.021 165.884C207.74 173.745 204.27 181.211 199.73 188.022C199.393 188.536 198.881 188.912 198.289 189.078C197.696 189.244 197.063 189.19 196.508 188.926Z" fill="#E6E6E6"/>
<path d="M201.301 178.133L188.84 172.249C188.53 172.102 188.291 171.839 188.175 171.516C188.06 171.193 188.077 170.838 188.223 170.528C188.37 170.218 188.633 169.979 188.956 169.863C189.279 169.747 189.634 169.764 189.944 169.911L202.405 175.795C202.558 175.867 202.696 175.969 202.81 176.095C202.924 176.221 203.013 176.368 203.07 176.528C203.127 176.687 203.152 176.857 203.144 177.026C203.136 177.196 203.094 177.362 203.022 177.516C202.949 177.669 202.847 177.807 202.722 177.921C202.596 178.035 202.449 178.123 202.289 178.181C202.129 178.238 201.96 178.263 201.79 178.255C201.621 178.247 201.455 178.205 201.301 178.133Z" fill="white"/>
<path d="M203.238 174.034L190.777 168.15C190.467 168.003 190.228 167.74 190.112 167.417C189.996 167.094 190.014 166.739 190.16 166.429C190.306 166.119 190.57 165.88 190.893 165.764C191.215 165.648 191.571 165.665 191.881 165.812L204.341 171.696C204.651 171.842 204.891 172.106 205.006 172.428C205.122 172.751 205.105 173.107 204.958 173.417C204.812 173.727 204.548 173.966 204.226 174.082C203.903 174.197 203.548 174.18 203.238 174.034Z" fill="white"/>
<path d="M186.587 45.3491L185.427 45.4762C180.255 25.1532 170.231 11.0736 156.437 4.75928C138.901 -3.26729 117.217 2.1227 95.3795 19.9366C73.4309 37.8414 54.0007 66.1233 40.6684 99.5738L39.543 99.0587C52.9338 65.4622 72.4637 37.0436 94.5353 19.0392C116.718 0.943871 138.844 -4.48565 156.839 3.75109C171.029 10.2463 181.315 24.6307 186.587 45.3491Z" fill="#F2F2F2"/>
<path d="M58.6183 71.8172C55.585 78.2073 52.6998 84.8274 50.0428 91.4936C34.7531 129.855 27.0049 169.032 27.6381 204.791L26.4431 204.664C25.8093 168.771 33.5798 129.459 48.9173 90.9785C51.582 84.2935 54.4754 77.6547 57.5175 71.2466L58.6183 71.8172Z" fill="#F2F2F2"/>
<path d="M58.0451 98.1758C55.0117 104.566 52.1265 111.186 49.4696 117.852C34.1799 156.213 26.4317 195.39 27.0648 231.15L25.8699 231.022C25.2361 195.13 33.0065 155.818 48.3441 117.337C51.0087 110.652 53.9021 104.013 56.9442 97.6052L58.0451 98.1758Z" fill="#F2F2F2"/>
<path d="M25.927 107.762C27.248 105.777 26.4661 102.934 24.1806 101.414C21.8952 99.8933 18.9716 100.27 17.6506 102.256C16.3297 104.241 17.1115 107.083 19.397 108.604C21.6824 110.125 24.606 109.748 25.927 107.762Z" fill="#CCCCCC"/>
<path d="M307.213 179.465C308.534 177.479 307.752 174.637 305.467 173.117C303.181 171.596 300.258 171.973 298.937 173.959C297.616 175.944 298.398 178.786 300.683 180.307C302.969 181.827 305.892 181.45 307.213 179.465Z" fill="#CCCCCC"/>
</g>
<defs>
<clipPath id="clip0_340_250">
<rect width="369.887" height="300" fill="white"/>
</clipPath>
</defs>
</svg>
