<svg width="110" height="112" viewBox="0 0 110 112" fill="none" xmlns="http://www.w3.org/2000/svg">
<path fill-rule="evenodd" clip-rule="evenodd" d="M0.328117 69.3067C0.944329 58.2697 14.592 52.7425 18.5999 42.4405C22.1594 33.2912 14.166 19.7849 21.9312 13.778C29.812 7.68161 41.2601 19.5074 50.9942 17.3812C62.3341 14.9042 69.2757 0.317862 80.8681 0.90445C92.6809 1.50219 107.746 8.68321 109.686 20.351C111.888 33.5998 94.6426 41.9189 89.7669 54.4333C87.1578 61.1302 89.5621 68.4433 88.199 75.5002C86.0285 86.7375 88.4988 101 79.425 107.975C70.7491 114.645 58.1142 108.474 47.2763 106.959C36.2217 105.414 24.1479 106.016 15.4403 99.0325C6.58968 91.9343 -0.304326 80.6344 0.328117 69.3067Z" fill="#C4C4C4"/>
<path fill-rule="evenodd" clip-rule="evenodd" d="M0.328117 69.3067C0.944329 58.2697 14.592 52.7425 18.5999 42.4405C22.1594 33.2912 14.166 19.7849 21.9312 13.778C29.812 7.68161 41.2601 19.5074 50.9942 17.3812C62.3341 14.9042 69.2757 0.317862 80.8681 0.90445C92.6809 1.50219 107.746 8.68321 109.686 20.351C111.888 33.5998 94.6426 41.9189 89.7669 54.4333C87.1578 61.1302 89.5621 68.4433 88.199 75.5002C86.0285 86.7375 88.4988 101 79.425 107.975C70.7491 114.645 58.1142 108.474 47.2763 106.959C36.2217 105.414 24.1479 106.016 15.4403 99.0325C6.58968 91.9343 -0.304326 80.6344 0.328117 69.3067Z" fill="#673AB7"/>
</svg>
